Coordinates
version=1
nRows=24
nColumns=24
inDegrees=yes

Units are S.I. units (second, meters, Newtons, ...)
Angles are in degrees.

endheader
time	pelvis_tilt	pelvis_list	pelvis_rotation	pelvis_tx	pelvis_ty	pelvis_tz	hip_flexion_r	hip_adduction_r	hip_rotation_r	knee_angle_r	ankle_angle_r	subtalar_angle_r	mtp_angle_r	hip_flexion_l	hip_adduction_l	hip_rotation_l	knee_angle_l	ankle_angle_l	subtalar_angle_l	mtp_angle_l	lumbar_extension	lumbar_bending	lumbar_rotation
      5.95000000	      5.12404211	     -5.39279980	     -1.56107779	     -0.45847484	      0.92314268	     -0.20343649	    -17.71962782	      9.94264316	     -0.15301603	     -9.09269208	     17.00643771	      3.41960324	      0.00000000	     11.80866220	     -3.39267978	     -3.72106635	      0.96749881	      2.96882940	      1.67711812	      0.00000000	    -24.07869713	      4.68431621	      7.07510305
      5.96000000	      5.30528364	     -5.26476316	     -1.69634673	     -0.44759414	      0.92296532	     -0.20449989	    -18.12633761	      9.59753312	     -0.03847627	    -10.03875906	     16.70386348	      3.63143230	      0.00000000	     11.47660164	     -3.17720603	     -3.26414200	      0.15185626	      2.01348273	      0.87388603	      0.00000000	    -24.10480763	      4.58540922	      7.12850350
      5.97000000	      5.46226538	     -5.11180967	     -1.74493120	     -0.43649362	      0.92286986	     -0.20571676	    -18.44254559	      9.23455952	     -0.15386432	    -11.08730061	     16.17586215	      3.93127116	      0.00000000	     11.11389700	     -2.90553562	     -2.37547298	     -0.65948961	      0.71493193	     -0.44044620	      0.00000000	    -24.04874029	      4.48662448	      7.07505446
      5.98000000	      5.66324836	     -4.91788412	     -1.76999117	     -0.42526722	      0.92303204	     -0.20700357	    -18.69901628	      8.81940190	     -0.37623235	    -12.31941851	     15.55490378	      4.30674469	      0.00000000	     10.67117907	     -2.56907323	     -1.50460261	     -1.44442111	     -0.85723246	     -1.87087367	      0.00000000	    -24.03468173	      4.34718534	      6.96078337
      5.99000000	      5.90781098	     -4.66197413	     -1.78492332	     -0.41390977	      0.92347353	     -0.20833205	    -18.88496801	      8.32665065	     -0.70970561	    -13.74579947	     14.83900074	      4.76929283	      0.00000000	     10.15593390	     -2.14505225	     -0.56345785	     -2.19532928	     -2.56034638	     -3.51434216	      0.00000000	    -24.04932367	      4.13723917	      6.79107457
      6.00000000	      6.13833436	     -4.38880481	     -1.73813094	     -0.40250950	      0.92410677	     -0.20975573	    -18.89443495	      7.81830366	     -1.24645717	    -15.42682023	     13.90203823	      5.23687889	      0.00000000	      9.69196881	     -1.67261368	      0.49649310	     -3.00135541	     -4.10770331	     -5.38367587	      0.00000000	    -24.03319892	      3.93355348	      6.52906248
      6.01000000	      6.38883221	     -4.09202303	     -1.65669602	     -0.39110897	      0.92497280	     -0.21122931	    -18.75780177	      7.28268174	     -1.88724278	    -17.35802830	     12.71480821	      5.61562810	      0.00000000	      9.26240808	     -1.15003383	      1.53446741	     -3.92460643	     -5.21197253	     -7.22759290	      0.00000000	    -24.03785125	      3.70923927	      6.22325858
      6.02000000	      6.63240596	     -3.78554050	     -1.58582744	     -0.37975749	      0.92601438	     -0.21268808	    -18.42455231	      6.72158870	     -2.55593913	    -19.56196819	     11.20226374	      5.80275813	      0.00000000	      8.88430508	     -0.60267807	      2.50629238	     -4.97504754	     -5.74219204	     -8.91731605	      0.00000000	    -24.03470888	      3.46806395	      5.96211817
      6.03000000	      6.86662896	     -3.47966949	     -1.50124184	     -0.36851906	      0.92716677	     -0.21415723	    -17.89499952	      6.15582907	     -3.23349236	    -22.00063617	      9.30743531	      5.69262563	      0.00000000	      8.58758590	     -0.04314337	      3.29314497	     -6.20808263	     -5.60112088	    -10.24897637	      0.00000000	    -24.03437128	      3.23005296	      5.67224054
      6.04000000	      7.09513978	     -3.19522528	     -1.41443055	     -0.35743731	      0.92838515	     -0.21563302	    -17.17052625	      5.58995738	     -3.94582295	    -24.64984405	      6.98147302	      5.31138178	      0.00000000	      8.33421759	      0.49068581	      3.78497360	     -7.55362772	     -4.83201522	    -11.02763290	      0.00000000	    -24.05065300	      3.02741985	      5.33586164
      6.05000000	      7.26049158	     -2.94026436	     -1.38748328	     -0.34655008	      0.92954664	     -0.21701857	    -16.20175496	      5.04005042	     -4.49129645	    -27.46671118	      4.11662842	      4.49663123	      0.00000000	      8.10654308	      0.98051892	      4.22871860	     -8.86894403	     -3.80732663	    -11.60353753	      0.00000000	    -24.01826175	      2.83552664	      5.12517912
      6.06000000	      7.38347545	     -2.73772493	     -1.40798874	     -0.33589372	      0.93063558	     -0.21830320	    -15.03125772	      4.53706334	     -4.88923760	    -30.38887679	      0.71821436	      3.26166668	      0.00000000	      7.87598051	      1.38301298	      4.40929557	    -10.10121766	     -2.55929684	    -11.78362035	      0.00000000	    -23.97456736	      2.69571518	      4.92701092
      6.07000000	      7.46259484	     -2.58477238	     -1.51043824	     -0.32548285	      0.93162233	     -0.21943061	    -13.67410485	      4.08017467	     -5.08372016	    -33.37928811	     -3.16257389	      1.68362102	      0.00000000	      7.61315892	      1.68946998	      4.33147648	    -11.17336797	     -1.23393912	    -11.64415272	      0.00000000	    -23.92535737	      2.58741902	      4.80007845
      6.08000000	      7.54011460	     -2.46873451	     -1.71287143	     -0.31532133	      0.93255766	     -0.22032832	    -12.19509186	      3.66594161	     -5.05723572	    -36.40426988	     -7.39983972	     -0.05685022	      0.00000000	      7.26995637	      1.89735726	      3.87362801	    -12.05846363	      0.09347914	    -11.07313460	      0.00000000	    -23.93063278	      2.48376839	      4.70809866
      6.09000000	      7.55520170	     -2.40447504	     -2.00095164	     -0.30541360	      0.93330512	     -0.22105476	    -10.53846990	      3.32464401	     -4.84030932	    -39.45935787	    -11.72099297	     -1.88569649	      0.00000000	      6.88580795	      2.03855518	      3.51685321	    -12.72127680	      1.23390645	    -10.83234776	      0.00000000	    -23.91358443	      2.42081500	      4.71990105
      6.10000000	      7.59068279	     -2.34577753	     -2.37337223	     -0.29571991	      0.93402300	     -0.22153475	     -8.82819548	      3.03519483	     -4.41319443	    -42.49465624	    -15.88124905	     -3.57542896	      0.00000000	      6.40235778	      2.13705582	      2.94039055	    -13.20473646	      2.29462926	    -10.31934971	      0.00000000	    -23.97093105	      2.32373380	      4.71278732
      6.11000000	      7.60277839	     -2.28897371	     -2.81001243	     -0.28623463	      0.93461332	     -0.22184537	     -7.02837437	      2.79147320	     -3.87300943	    -45.50074363	    -19.45648886	     -5.05176076	      0.00000000	      5.88097372	      2.23687509	      2.41404674	    -13.54517928	      3.18454129	    -10.09010074	      0.00000000	    -24.04505762	      2.21147413	      4.73529027
      6.12000000	      7.62354810	     -2.22081015	     -3.26942902	     -0.27691821	      0.93514875	     -0.22201949	     -5.21125232	      2.59829333	     -3.26858612	    -48.41286399	    -22.12737007	     -6.24796325	      0.00000000	      5.30412817	      2.35522936	      1.92510701	    -13.77507248	      3.97998231	     -9.94733288	      0.00000000	    -24.15624880	      2.07705477	      4.72972140
      6.13000000	      7.64926177	     -2.13566057	     -3.70352772	     -0.26773982	      0.93564429	     -0.22213681	     -3.40623954	      2.44817524	     -2.68778941	    -51.16687361	    -23.63702073	     -7.18336608	      0.00000000	      4.69248333	      2.50809605	      1.52087514	    -13.92382314	      4.67199464	     -9.94575151	      0.00000000	    -24.28932969	      1.93335773	      4.65300506
      6.14000000	      7.69460658	     -2.02859830	     -4.07279584	     -0.25863561	      0.93616233	     -0.22225463	     -1.67084531	      2.33977493	     -2.16781742	    -53.68083163	    -23.87593808	     -7.93902937	      0.00000000	      4.00976984	      2.70559428	      1.27520126	    -13.95677029	      5.27687317	     -9.97564694	      0.00000000	    -24.43468752	      1.78539957	      4.47148256
      6.15000000	      7.73370811	     -1.94492210	     -4.32378333	     -0.24961653	      0.93669864	     -0.22246222	     -0.00136736	      2.30295923	     -1.80317310	    -55.89056689	    -22.98813608	     -8.64302063	      0.00000000	      3.32480307	      2.89200298	      1.15501060	    -13.95214114	      5.89352519	    -10.00703789	      0.00000000	    -24.57043474	      1.71032916	      4.18422406
      6.16000000	      7.75557205	     -1.88841491	     -4.45953706	     -0.24065511	      0.93726665	     -0.22278216	      1.60155204	      2.32770279	     -1.59173432	    -57.76089547	    -21.05002872	     -9.28051315	      0.00000000	      2.63711174	      3.05529973	      1.12833707	    -13.88571341	      6.46409122	    -10.02177249	      0.00000000	    -24.66590984	      1.71666189	      3.79417477
      6.17000000	      7.77461701	     -1.88845605	     -4.47640999	     -0.23174863	      0.93791568	     -0.22322651	      3.11112118	      2.42996845	     -1.54090398	    -59.25720620	    -18.36093205	     -9.86318483	      0.00000000	      1.93180925	      3.15829966	      1.18644803	    -13.76483079	      6.97998399	    -10.02221399	      0.00000000	    -24.74386870	      1.83580823	      3.33431159
      6.18000000	      7.78078437	     -1.95073306	     -4.40890549	     -0.22291919	      0.93863389	     -0.22375939	      4.54966745	      2.61041409	     -1.60526323	    -60.38599441	    -15.28909233	    -10.41942003	      0.00000000	      1.22489904	      3.18906532	      1.30750877	    -13.60440084	      7.44481080	     -9.99475725	      0.00000000	    -24.79772290	      2.05988165	      2.83663702
